<svg xmlns="http://www.w3.org/2000/svg" viewBox="0 0 128 128">
  <rect width="128" height="128" rx="24" fill="#9db8d8"/>
  <g stroke-linecap="round">
    <path d="M20 96 Q64 20 108 96" fill="none" stroke="#e8524a" stroke-width="5"/>
    <path d="M27 96 Q64 30 101 96" fill="none" stroke="#f5d90a" stroke-width="5"/>
    <path d="M34 96 Q64 40 94 96" fill="none" stroke="#58b368" stroke-width="5"/>
  </g>
  <path d="M24 88 L104 88 L92 112 L36 112 Z" fill="#8a5a30"/>
  <rect x="44" y="64" width="40" height="26" rx="6" fill="#b87f48"/>
  <rect x="40" y="56" width="48" height="12" rx="5" fill="#7a4a24"/>
  <circle cx="56" cy="77" r="5" fill="#ffd77a"/>
  <circle cx="72" cy="77" r="5" fill="#ffd77a"/>
  <circle cx="42" cy="98" r="9" fill="#f6f1e2"/>
  <circle cx="39" cy="97" r="1.6" fill="#2c2416"/>
  <circle cx="45" cy="97" r="1.6" fill="#2c2416"/>
  <path d="M40 100 q2 2 4 0" fill="none" stroke="#4a3420" stroke-width="1.4"/>
  <circle cx="86" cy="98" r="9" fill="#f0a44a"/>
  <circle cx="83" cy="97" r="1.6" fill="#2c2416"/>
  <circle cx="89" cy="97" r="1.6" fill="#2c2416"/>
  <path d="M84 100 q2 2 4 0" fill="none" stroke="#4a3420" stroke-width="1.4"/>
</svg>
